<?xml version="1.0" encoding="UTF-8"?>
<svg id="Layer_1" xmlns="http://www.w3.org/2000/svg" version="1.1" viewBox="0 0 800 800">
  <!-- Generator: Adobe Illustrator 29.6.0, SVG Export Plug-In . SVG Version: 2.1.1 Build 207)  -->
  <defs>
    <style>
      .st0 {
        fill: #fff;
      }

      .st1 {
        fill: #e5ab1e;
      }

      .st2 {
        fill: #f47401;
      }
    </style>
  </defs>
  <g id="SVGRepo_iconCarrier">
    <path class="st0" d="M735.12,396.11c-8.71-6.06-25.47-8.92-39.95-9.91-19.3-1.36-40.14-1.35-59.58-.51-23.27,1.72-46.28,2.39-58.28,20.29-3.32,5.24-5.38,11.79-6.65,19.75-.92,5.78-1.43,12.3-1.73,19.54-1.12,66.32-.13,150.69-.44,217.66,0,8.78.05,17.87.28,26.25.38,12.86,1.11,26.42,5.16,37.28,4.52,13.5,17.38,20.91,31.19,23.64,23.43,4.86,57.11,4.48,82.6,3.45,24.48-1.83,51.57-2.77,60.68-27.44,6.05-17.86,4.89-38.76,5.29-58.08.01-57.34.04-136.31,0-197.23-.87-25.91,2.82-61.18-18.47-74.65l-.1-.06Z"/>
    <path class="st1" d="M466.03,227.01c-29.31-16.03-120.27-17.97-143.61,8.88-11.32,12.34-13.37,30.57-14.36,48.46-.59,11.74-.63,25.29-.65,37.87.51,106.08-1.05,257.45.64,362.91.53,10.31,1.52,19.32,3.45,27.01,8.62,36.88,45.75,39.97,79.08,41.88,31.17.26,80.45.19,94.35-31.38,5.52-12.32,6.65-27.26,7.25-42.01,1.18-102.49.09-236.82.45-347.7,0-8.79,0-17.23-.07-25.76-1.09-34.35,1.15-64.81-26.42-80.11l-.1-.06Z"/>
    <path class="st2" d="M211.01,52.72c-20.85-6.92-39.92-6.09-65.29-6.87-27.37.32-50.27-.57-74.19,5.35-18.99,5.24-23.6,16.71-24.67,34.66-.56,8.72-.53,19.4-.54,29.03.39,140.33-.74,469.01.41,597.16.93,15.21,3.13,24.86,12.88,31.53,13.74,8.6,30.84,8.62,50.03,10.02,21.44.89,46.28.86,67.79-.51,12.87-.97,25-2.06,36.28-6.97,17.51-8.64,17.06-22.63,17.78-46.87.14-86.38,0-172.15.05-259.69-.06-122.48.1-225.45-.05-339.09-.63-24.71-.43-39.73-20.37-47.71l-.1-.04Z"/>
  </g>
</svg>